<!DOCTYPE svg PUBLIC "-//W3C//DTD SVG 1.1//EN" "http://www.w3.org/Graphics/SVG/1.1/DTD/svg11.dtd">
<svg xmlns="http://www.w3.org/2000/svg" xmlns:xlink="http://www.w3.org/1999/xlink" version="1.1" width="623px" height="705px" viewBox="-0.5 -0.5 623 705"><defs/><rect x="-88" y="402" width="453" height="151" rx="75.5" ry="75.5" fill="#2b2f47" stroke="none" transform="rotate(90,138.5,477.5)" pointer-events="none"/><path d="M 61.73 310.5 C 61.73 173.26 173.05 62 310.37 62 C 376.31 62 439.55 88.18 486.18 134.78 C 532.8 181.39 559 244.59 559 310.5 C 559 376.41 532.8 439.61 486.18 486.22 C 439.55 532.82 376.31 559 310.37 559 C 244.43 559 181.19 532.82 134.56 486.22 C 87.93 439.61 61.73 376.41 61.73 310.5 Z M 310.37 213.19 C 256.55 213.19 212.92 256.76 212.92 310.5 C 212.92 364.24 256.55 407.81 310.37 407.81 C 364.18 407.81 407.81 364.24 407.81 310.5 C 407.81 256.76 364.18 213.19 310.37 213.19 Z" fill="#2b2f47" stroke="none" pointer-events="none"/><path d="M 492.66 479.49 C 410.52 568 276.61 584.7 175.23 519.09 C 73.84 453.47 34.3 324.52 81.5 213.4 C 128.7 102.27 248.98 41.13 366.63 68.45 L 332.31 216.1 C 286.43 205.44 239.52 229.29 221.11 272.63 C 202.7 315.97 218.12 366.26 257.66 391.85 C 297.2 417.44 349.43 410.93 381.46 376.41 Z" fill="#2e8be8" stroke="none" transform="rotate(17,310.37,310.5)" pointer-events="none"/></svg>