<svg width="700" height="700" xmlns="http://www.w3.org/2000/svg">

 <g>
  <title>background</title>
  <rect fill="none" id="canvas_background" height="702" width="702" y="-1" x="-1"/>
 </g>
 <g>
  <title>Layer 1</title>
  <rect id="svg_1" transform="rotate(90 182.49999999999997,450.50000000000006) " fill="#2b2f47" ry="75.5" rx="75.5" height="151" width="453" y="375" x="-44"/>
  <path id="svg_2" fill="#2b2f47" d="m106.364991,284.5c0,-137.24 111.32,-248.5 248.64,-248.5c65.94,0 129.18,26.18 175.81,72.78c46.62,46.61 72.82,109.81 72.82,175.72c0,65.91 -26.2,129.11 -72.82,175.72c-46.63,46.6 -109.87,72.78 -175.81,72.78c-65.94,0 -129.18,-26.18 -175.81,-72.78c-46.63,-46.61 -72.83,-109.81 -72.83,-175.72zm248.64,-97.31c-53.82,0 -97.45,43.57 -97.45,97.31c0,53.74 43.63,97.31 97.45,97.31c53.81,0 97.44,-43.57 97.44,-97.31c0,-53.74 -43.63,-97.31 -97.44,-97.31z"/>
  <path id="svg_3" transform="rotate(17 323.265167236328,274.4888916015625) " fill="#2e8be8" d="m538.743271,443.49c-82.14,88.51 -216.05,105.21 -317.43,39.6c-101.39,-65.62 -140.93,-194.57 -93.73,-305.69c47.2,-111.13 167.48,-172.27 285.13,-144.95l-34.32,147.65c-45.88,-10.66 -92.79,13.19 -111.2,56.53c-18.41,43.34 -2.99,93.63 36.55,119.22c39.54,25.59 91.77,19.08 123.8,-15.44l111.2,103.08z"/>
 </g>
</svg>